<?xml version="1.0" standalone="no"?>
<!DOCTYPE svg PUBLIC "-//W3C//DTD SVG 20010904//EN"
 "http://www.w3.org/TR/2001/REC-SVG-20010904/DTD/svg10.dtd">
<svg version="1.0" xmlns="http://www.w3.org/2000/svg"
 width="1024.000000pt" height="1024.000000pt" viewBox="0 0 1024.000000 1024.000000"
 preserveAspectRatio="xMidYMid meet">

<g transform="translate(0.000000,1024.000000) scale(0.100000,-0.100000)"
fill="#000000" stroke="none">
<path d="M4920 8499 c-996 -54 -1940 -607 -2516 -1474 -447 -672 -646 -1529
-544 -2340 66 -518 244 -1013 523 -1451 325 -510 787 -936 1300 -1200 430
-220 795 -322 1273 -355 291 -21 591 8 899 86 217 54 388 117 593 215 374 181
644 372 938 665 795 794 1158 1928 973 3045 -78 473 -263 943 -529 1343 -148
222 -215 303 -424 513 -185 185 -243 235 -426 366 -592 425 -1306 629 -2060
587z m445 -240 c695 -59 1322 -345 1832 -833 531 -508 874 -1218 955 -1976 19
-178 16 -571 -6 -735 -83 -624 -309 -1157 -700 -1650 -104 -131 -364 -391
-496 -495 -182 -144 -446 -309 -627 -392 -198 -90 -475 -179 -676 -217 -760
-145 -1562 38 -2216 504 -305 218 -596 517 -798 820 -208 313 -355 633 -447
975 -218 808 -119 1665 275 2394 146 271 317 502 529 716 162 164 306 283 490
405 554 368 1228 541 1885 484z"/>
<path d="M5082 7675 c-130 -147 -196 -320 -195 -505 2 -192 48 -311 247 -640
138 -227 176 -300 209 -405 32 -102 51 -248 42 -328 -8 -78 -51 -244 -70 -274
-30 -45 -14 -36 51 27 177 174 263 371 251 575 -12 181 -59 294 -268 636 -161
263 -214 379 -249 549 -24 117 -23 249 4 348 8 28 13 52 11 52 -2 0 -17 -16
-33 -35z"/>
<path d="M4672 6943 c-101 -143 -133 -339 -80 -488 32 -93 89 -188 199 -336
162 -217 210 -332 209 -502 0 -56 -6 -129 -14 -162 l-14 -60 44 50 c59 65 97
134 123 219 25 80 26 145 6 240 -21 101 -72 194 -205 377 -148 204 -183 263
-218 364 -23 69 -27 96 -27 203 0 67 -1 122 -2 122 -1 0 -10 -12 -21 -27z"/>
<path d="M4495 6113 c-22 -1 -98 -8 -170 -13 -269 -22 -590 -76 -744 -126
-385 -126 -618 -426 -676 -871 -64 -487 101 -999 435 -1346 115 -120 224 -203
350 -267 181 -91 355 -140 498 -140 l79 0 1 178 c1 101 9 226 18 293 l16 116
-35 81 c-60 138 -118 214 -337 437 -229 234 -316 343 -384 481 -122 248 -151
464 -87 657 18 54 32 75 74 113 61 55 97 74 202 107 157 49 491 92 893 115
l124 7 -69 92 c-75 103 -62 97 -188 86z m-1276 -807 c-8 -8 -10 -6 -5 10 4 15
2 24 -9 28 -15 5 -19 -4 -16 -34 2 -12 0 -12 -7 -2 -12 18 -25 -31 -17 -61 5
-17 4 -19 -4 -7 -9 12 -11 10 -12 -10 -1 -14 -1 -31 0 -37 1 -7 -2 -13 -7 -13
-5 0 -9 -11 -9 -25 0 -32 5 -32 18 1 20 54 17 16 -7 -76 -13 -52 -31 -144 -38
-205 l-14 -110 -1 115 c-2 203 27 350 102 515 l32 70 3 -74 c2 -47 -1 -78 -9
-85z"/>
<path d="M3121 5074 c0 -11 3 -14 6 -6 3 7 2 16 -1 19 -3 4 -6 -2 -5 -13z"/>
<path d="M5763 6012 c-7 -43 -13 -84 -15 -92 -2 -10 35 -19 152 -36 85 -13
191 -31 235 -39 104 -21 245 -66 245 -79 0 -17 -119 -123 -200 -180 -87 -61
-228 -139 -535 -295 -389 -199 -559 -313 -740 -495 -134 -135 -226 -262 -305
-421 -107 -215 -171 -450 -191 -706 -10 -126 -8 -333 3 -344 5 -5 198 42 206
50 3 2 7 69 9 147 13 525 193 923 553 1223 151 126 291 209 661 395 350 176
493 266 630 397 l56 54 12 -47 c12 -46 11 -48 -27 -103 -85 -121 -259 -237
-668 -442 -174 -87 -351 -180 -393 -206 -322 -199 -528 -425 -659 -723 -65
-146 -97 -258 -128 -440 -27 -163 -31 -240 -11 -240 24 0 278 120 375 176 152
89 187 115 171 126 -11 8 -10 8 4 4 33 -11 208 132 407 333 152 152 328 365
439 529 43 64 49 95 10 51 l-21 -24 15 25 c8 14 22 25 32 25 11 0 33 25 58 68
22 37 42 65 44 63 6 -6 -71 -157 -158 -308 -152 -262 -313 -472 -519 -679
-442 -443 -880 -645 -1321 -609 -306 25 -609 175 -878 435 l-104 100 38 -60
c278 -445 734 -744 1280 -840 142 -25 388 -30 531 -11 365 48 705 197 982 428
433 363 710 857 798 1423 11 74 17 177 18 314 l1 203 50 20 c89 36 148 48 240
48 104 0 167 -23 222 -81 55 -59 77 -121 78 -224 0 -170 -61 -301 -215 -455
-97 -97 -198 -173 -305 -228 -59 -31 -61 -33 -90 -109 -16 -43 -41 -106 -57
-141 -28 -63 -28 -63 -5 -56 139 42 347 152 483 255 271 205 414 456 414 728
0 276 -152 472 -410 527 -117 25 -288 5 -432 -51 -13 -5 -18 4 -28 52 -41 197
-116 382 -176 431 -50 41 -188 95 -339 132 -107 26 -439 80 -491 80 -17 0 -21
-11 -31 -78z m835 -732 l0 -25 -8 25 c-4 14 -8 39 -8 55 l0 30 8 -30 c4 -16 8
-41 8 -55z m9 -82 c-2 -13 -4 -5 -4 17 -1 22 1 32 4 23 2 -10 2 -28 0 -40z
m10 -90 c-2 -13 -4 -5 -4 17 -1 22 1 32 4 23 2 -10 2 -28 0 -40z m10 -130 c-2
-13 -4 -5 -4 17 -1 22 1 32 4 23 2 -10 2 -28 0 -40z m0 -90 c-2 -13 -4 -3 -4
22 0 25 2 35 4 23 2 -13 2 -33 0 -45z m-10 -130 c-3 -8 -6 -5 -6 6 -1 11 2 17
5 13 3 -3 4 -12 1 -19z m-453 -177 c-9 -33 -22 -65 -29 -71 -6 -5 0 24 14 65
30 88 39 92 15 6z m433 27 c-3 -8 -6 -5 -6 6 -1 11 2 17 5 13 3 -3 4 -12 1
-19z m-10 -60 c-3 -7 -5 -2 -5 12 0 14 2 19 5 13 2 -7 2 -19 0 -25z m-10 -40
c-3 -8 -6 -5 -6 6 -1 11 2 17 5 13 3 -3 4 -12 1 -19z m-693 -143 c-15 -20 -29
-33 -32 -31 -4 5 1 14 33 53 24 30 23 9 -1 -22z m146 -109 c-31 -67 -52 -93
-26 -33 26 61 50 107 53 103 3 -2 -10 -34 -27 -70z m451 -53 c-12 -20 -14 -14
-5 12 4 9 9 14 11 11 3 -2 0 -13 -6 -23z m-781 -67 c0 -11 -19 -15 -25 -6 -3
5 1 10 9 10 9 0 16 -2 16 -4z m170 -175 c-29 -42 -36 -39 -8 3 13 19 24 33 26
31 3 -2 -6 -18 -18 -34z m-380 -36 c-13 -14 -25 -23 -27 -21 -8 7 10 35 25 39
10 3 19 5 21 6 3 0 -6 -10 -19 -24z m270 -125 c-6 -11 -13 -20 -16 -20 -2 0 0
9 6 20 6 11 13 20 16 20 2 0 0 -9 -6 -20z m-50 -63 c0 -2 -10 -12 -22 -23
l-23 -19 19 23 c18 21 26 27 26 19z m-546 -72 c-29 -22 -40 -18 -14 5 13 11
26 18 28 15 3 -3 -3 -12 -14 -20z m484 -4 c-13 -15 -25 -27 -27 -25 -4 4 39
54 47 54 2 0 -7 -13 -20 -29z m462 -54 c0 -2 -12 -14 -27 -28 l-26 -24 19 27
c16 23 34 36 34 25z m-1262 -114 c-10 -2 -18 -9 -18 -14 0 -5 -8 -9 -17 -9
-16 1 -16 2 1 15 11 8 27 14 35 14 13 -1 12 -2 -1 -6z m622 -28 c-19 -19 -39
-34 -45 -34 -5 0 8 15 29 34 51 45 60 45 16 0z m520 21 c0 -2 -8 -10 -17 -17
-16 -13 -17 -12 -4 4 13 16 21 21 21 13z m-70 -60 c0 -2 -8 -10 -17 -17 -16
-13 -17 -12 -4 4 13 16 21 21 21 13z m-510 -9 c0 -2 -12 -14 -27 -28 l-28 -24
24 28 c23 25 31 32 31 24z m-80 -71 c0 -2 -8 -10 -17 -17 -16 -13 -17 -12 -4
4 13 16 21 21 21 13z m-40 -30 c0 -2 -8 -10 -17 -17 -16 -13 -17 -12 -4 4 13
16 21 21 21 13z m-80 -65 c0 -5 -7 -12 -16 -15 -14 -5 -15 -4 -4 9 14 17 20
19 20 6z m-40 -30 c0 -5 -7 -12 -16 -15 -14 -5 -15 -4 -4 9 14 17 20 19 20 6z
m-60 -40 c0 -5 -7 -12 -16 -15 -14 -5 -15 -4 -4 9 14 17 20 19 20 6z m-234
-140 c-13 -15 -14 -20 -4 -24 7 -3 -9 -6 -37 -6 l-50 -1 50 24 c62 30 62 30
41 7z m217 -8 c-7 -2 -21 -2 -30 0 -10 3 -4 5 12 5 17 0 24 -2 18 -5z"/>
<path d="M3744 5696 c-66 -21 -111 -62 -146 -134 -31 -62 -33 -73 -32 -167 0
-126 26 -222 96 -358 72 -139 139 -226 332 -426 173 -179 265 -292 326 -399
19 -34 37 -62 40 -62 3 0 20 44 39 98 41 119 106 250 179 362 72 112 111 159
204 252 l77 77 -26 58 c-69 152 -262 386 -404 490 -226 166 -529 258 -685 209z
m211 -206 c22 -6 11 -7 -39 -3 l-68 6 5 -37 c4 -31 3 -35 -9 -25 -11 9 -14 9
-14 0 0 -7 -4 -10 -8 -7 -5 3 -9 -1 -9 -7 0 -7 12 -14 25 -15 50 -4 34 -12
-23 -12 l-58 0 6 47 c7 64 26 76 102 69 33 -4 74 -10 90 -16z m62 -16 c-3 -3
-12 -4 -19 -1 -8 3 -5 6 6 6 11 1 17 -2 13 -5z m112 -41 c71 -31 201 -118 274
-183 108 -97 275 -341 292 -427 5 -28 5 -28 -5 -3 -6 14 -21 35 -32 47 -12 13
-18 23 -15 23 4 0 -1 9 -10 20 -9 11 -19 18 -21 16 -4 -5 20 -49 32 -57 5 -4
7 -12 5 -18 -2 -6 -36 32 -74 85 -146 201 -341 347 -552 415 -81 26 -93 39
-14 15 28 -8 51 -13 51 -11 0 2 21 -7 48 -20 50 -24 83 -23 35 2 -44 22 -46
29 -8 25 21 -3 35 -10 35 -18 0 -16 16 -19 25 -3 4 5 -7 15 -24 22 -17 6 -31
17 -31 25 0 10 5 10 20 2 11 -6 20 -7 20 -3 0 4 -35 25 -78 46 -82 40 -64 40
27 0z m-224 17 c-3 -5 -12 -10 -18 -10 -7 0 -6 4 3 10 19 12 23 12 15 0z m150
-28 c-3 -3 -11 0 -18 7 -9 10 -8 11 6 5 10 -3 15 -9 12 -12z m75 -22 c0 -5 -2
-10 -4 -10 -3 0 -8 5 -11 10 -3 6 -1 10 4 10 6 0 11 -4 11 -10z"/>
<path d="M4204 5365 c8 -8 21 -15 29 -15 8 0 18 -7 21 -16 9 -24 8 -25 -14
-12 -26 17 -39 2 -14 -17 18 -14 17 -14 -8 -4 -15 7 -25 16 -22 20 3 5 -2 6
-10 3 -24 -9 -19 -19 20 -37 19 -10 40 -22 47 -27 46 -39 139 -101 144 -96 4
3 1 6 -6 6 -7 0 -9 5 -6 10 4 6 12 8 18 4 7 -3 2 3 -10 14 -13 11 -23 23 -23
26 0 13 16 5 43 -20 16 -14 30 -24 33 -21 8 8 -140 137 -192 168 -57 32 -73
37 -50 14z m134 -110 c-3 -3 -9 2 -12 12 -6 14 -5 15 5 6 7 -7 10 -15 7 -18z"/>
<path d="M4440 5116 c19 -20 41 -36 48 -36 7 0 11 -4 8 -8 -6 -9 29 -52 42
-52 4 0 13 4 21 9 14 9 13 10 -53 88 -16 18 -31 31 -34 28 -3 -3 5 -13 16 -24
31 -26 29 -44 -3 -29 -13 6 -23 14 -20 17 2 4 -11 15 -28 25 l-31 18 34 -36z
m90 -56 c0 -5 -4 -10 -10 -10 -5 0 -10 5 -10 10 0 6 5 10 10 10 6 0 10 -4 10
-10z"/>
<path d="M4570 4966 c0 -2 8 -10 18 -17 15 -13 16 -12 3 4 -13 16 -21 21 -21
13z"/>
</g>
</svg>
